# AST/ASF file generated using VICON BodyLanguage
# -----------------------------------------------
:version 1.10
:name VICON
:units
  mass 1.0
  length 0.45
  angle deg
:documentation
   .ast/.asf automatically generated from VICON data using
   VICON BodyBuilder and BodyLanguage model FoxedUp or BRILLIANT.MOD
:root
   order TX TY TZ RX RY RZ
   axis XYZ
   position 0 0 0  
   orientation 0 0 0 
:bonedata
  begin
     id 1 
     name lhipjoint
     direction 0.78388 -0.462562 0.414208 
     length 3.01181 
     axis 0 0 0  XYZ
  end
  begin
     id 2 
     name lfemur
     direction 0.34202 -0.939693 0  
     length 6.04673  
     axis 0 0 20  XYZ
    dof rx ry rz
    limits (-160.0 20.0)
           (-70.0 70.0)
           (-60.0 70.0)
  end
  begin
     id 3 
     name ltibia
     direction 0.34202 -0.939693 0   
     length 7.211   
     axis 0 0 20   XYZ
    dof rx
    limits (-10.0 170.0)
  end
  begin
     id 4 
     name lfoot
     direction 0.121887 -0.334882 0.934344   
     length 2.13567   
     axis -90 7.62852e-016 20   XYZ
    dof rx rz
    limits (-45.0 90.0)
           (-70.0 20.0)
  end
  begin
     id 5 
     name ltoes
     direction 1.53555e-011 -4.2179e-011 1   
     length 1.05957   
     axis -90 7.62852e-016 20   XYZ
    dof rx
    limits (-90.0 20.0)
  end
  begin
     id 6 
     name rhipjoint
     direction -0.769387 -0.475875 0.426129   
     length 2.92756  
     axis 0 0 0  XYZ 
  end
  begin
     id 7 
     name rfemur
     direction -0.34202 -0.939693 0   
     length 6.35468   
     axis 0 0 -20   XYZ
    dof rx ry rz
    limits (-160.0 20.0)
           (-70.0 70.0)
           (-70.0 60.0)
  end
  begin
     id 8 
     name rtibia
     direction -0.34202 -0.939693 0   
     length 7.37886   
     axis 0 0 -20   XYZ
    dof rx
    limits (-10.0 170.0)
 end
 begin
     id 9 
     name rfoot
     direction -0.101763 -0.279592 0.954711   
     length 2.21478  
     axis -90 -7.62852e-016 -20   XYZ
    dof rx rz
    limits (-45.0 90.0)
           (-20.0 70.0)
  end
  begin
     id 10 
     name rtoes
     direction -1.53494e-011 -4.21851e-011 1   
     length 1.10506   
     axis -90 -7.62852e-016 -20   XYZ
    dof rx
    limits (-90.0 20.0)
  end
  begin
     id 11 
     name lowerback
     direction 0.00747405 0.999267 0.0375481   
     length 2.13259   
     axis 0 0 0   XYZ
    dof rx ry rz
    limits (-20.0 45.0)
           (-30.0 30.0)
           (-30.0 30.0)
  end
  begin
     id 12 
     name upperback
     direction 0.00661626 0.996177 0.0871029   
     length 2.10528   
     axis 0 0 0   XYZ
    dof rx ry rz
    limits (-20.0 45.0)
           (-30.0 30.0)
           (-30.0 30.0)
  end
  begin
     id 13 
     name thorax
     direction 0.00320659 0.997679 0.0680167   
     length 2.11338   
     axis 0 0 0   XYZ
    dof rx ry rz
    limits (-20.0 45.0)
           (-30.0 30.0)
           (-30.0 30.0)
  end
  begin
     id 14 
     name lowerneck
     direction 0.0374841 0.973033 0.227602   
     length 1.42765   
     axis 0 0 0   XYZ
    dof rx ry rz
    limits (-20.0 45.0)
           (-30.0 30.0)
           (-30.0 30.0)
  end
  begin
     id 15 
     name upperneck
     direction 0.00481585 0.989155 -0.146795   
     length 1.47593   
     axis 0 0 0   XYZ
    dof rx ry rz
    limits (-20.0 45.0)
           (-30.0 30.0)
           (-30.0 30.0)
  end
  begin
     id 16
     name head
     direction -0.00292522 0.997206 -0.0746423  
     length 1.48116  
     axis 0 0 0   XYZ
    dof rx ry rz
    limits (-20.0 45.0)
           (-30.0 30.0)
           (-30.0 30.0)
  end
  begin
     id 17 
     name lclavicle
     direction 0.951444 0.305606 0.0368784  
     length 3.01855  
     axis 0 0 0   XYZ
    dof ry rz
    limits (-20.0 10.0)
           (0.0 20.0)
  end
  begin
     id 18 
     name lhumerus
     direction 1 -4.48977e-011 2.61664e-027   
     length 5.52731   
     axis 180 -30 -90   XYZ
    dof rx ry rz
    limits (-60.0 90.0)
           (-90.0 90.0)
           (-90.0 90.0)
  end
  begin
     id 19
     name lradius
     direction 1 -4.48944e-011 8.22157e-027   
     length 3.11059   
     axis 180 -30 -90   XYZ
    dof rx
    limits (-10.0 170.0)
  end
  begin
     id 20
     name lwrist
     direction 1 -4.48976e-011 1.5779e-026   
     length 1.5553   
     axis -1.15221e-014 90 90   XYZ
    dof ry
    limits (-180.0 0.0)
 end
  begin
     id 21 
     name lhand
     direction 1 -4.49025e-011 3.1558e-026   
     length 0.419626   
     axis -2.01367e-014 90 90   XYZ
    dof rx rz
    limits (-90.0 90.0)
           (-45.0 45.0)
  end
  begin
     id 22 
     name lfingers
     direction 1 -4.4904e-011 6.31161e-026   
     length 0.338313   
     axis -4.02734e-014 90 90   XYZ
    dof rx
    limits (0.0 90.0)
  end
  begin
     id 23
     name lthumb
     direction 0.707107 -6.35004e-011 0.707107   
     length 0.485752   
     axis -90 45 2.85299e-015   XYZ
    dof rx rz
    limits (-45.0 45.0)
           (-45.0 45.0)
  end
  begin
     id 24 
     name rclavicle
     direction -0.968876 0.223791 0.105816   
     length 3.04177  
     axis 0 0 0   XYZ 
    dof ry rz
    limits (-10.0 20.0)
           (-20.0 0.0)
  end
  begin
     id 25 
     name rhumerus
     direction -1 -4.48962e-011 -1.01384e-027  
     length 5.25396   
     axis 180 30 90   XYZ
    dof rx ry rz
    limits (-90.0 60.0)
           (-90.0 90.0)
           (-90.0 90.0)
  end
  begin
     id 26 
     name rradius
     direction -1 -4.48955e-011 8.88542e-027   
     length 3.10567   
     axis 180 30 90   XYZ
    dof rx
    limits (-10.0 170.0)
  end
  begin
     id 27 
     name rwrist
     direction -1 -4.48994e-011 1.5779e-026   
     length 1.55283   
     axis -1.15221e-014 -90 -90   XYZ
    dof ry
    limits (-180.0 0.0)
  end
  begin
     id 28
     name rhand
     direction -1 -4.48891e-011 3.1558e-026   
     length 0.498676   
     axis -2.01367e-014 -90 -90   XYZ
    dof rx rz
    limits (-90.0 90.0)
           (-45.0 45.0)
  end
  begin
     id 29
     name rfingers
     direction -1 -4.48972e-011 6.31161e-026   
     length 0.402045   
     axis -4.02734e-014 -90 -90   XYZ
    dof rx
    limits (0.0 90.0)
  end
  begin
     id 30
     name rthumb
     direction -0.707107 -6.34849e-011 0.707107   
     length 0.577259   
     axis -90 -45 -2.85299e-015   XYZ
    dof rx rz
    limits (-45.0 45.0)
           (-45.0 45.0)
  end
:hierarchy
  begin
    root lhipjoint rhipjoint lowerback
    lhipjoint lfemur
    lfemur ltibia
    ltibia lfoot
    lfoot ltoes
    rhipjoint rfemur
    rfemur rtibia
    rtibia rfoot
    rfoot rtoes
    lowerback upperback
    upperback thorax
    thorax lowerneck lclavicle rclavicle
    lowerneck upperneck
    upperneck head
    lclavicle lhumerus
    lhumerus lradius
    lradius lwrist
    lwrist lhand lthumb
    lhand lfingers
    rclavicle rhumerus
    rhumerus rradius
    rradius rwrist
    rwrist rhand rthumb
    rhand rfingers
  end

#!OML:ASF H:\Pregnant\Project 1\Capture day 1\Session 1\femalepreg.ASF
:FULLY-SPECIFIED
:DEGREES
309
root 3.88319 1.01246 19.7738 -135.027 -85.9931 36.3923
lowerback 12.1096 0.388143 3.60202
upperback 10.8805 0.356538 -0.740175
thorax 4.73828 0.199035 -2.8428
lowerneck -17.4115 5.98226 8.6297
upperneck 32.4929 6.23407 -1.32295
head 14.4453 3.39476 -0.970006
rclavicle 5.22307e-014 -1.07716e-014
rhumerus -43.803 13.5869 -65.9378
rradius 92.9223
rwrist -14.0609
rhand 21.6143 -16.3801
rfingers 7.12502
rthumb 226.036 -219.46
lclavicle 5.22307e-014 -1.07716e-014
lhumerus -45.5489 -6.05607 68.3937
lradius 53.3678
lwrist 68.9863
lhand 184.757 193.14
lfingers 7.12502
lthumb 210.138 -139.298
rfemur -47.0187 22.194 10.4692
rtibia 116.449
rfoot 19.4287 19.1132
rtoes -0.406151
lfemur -36.7654 -20.09 -4.22177
ltibia 104.884
lfoot 23.4768 -23.9095
ltoes -12.5822
310
root 3.88183 1.01074 19.7768 -137.21 -85.979 38.1948
lowerback 12.2334 0.349804 3.62079
upperback 10.8655 0.308212 -0.714211
thorax 4.65145 0.171557 -2.82291
lowerneck -17.4244 5.92167 8.50944
upperneck 32.4751 6.18562 -1.332
head 14.4307 3.35704 -0.962692
rclavicle -9.01488e-014 1.27595e-013
rhumerus -43.1933 13.7486 -65.868
rradius 92.5416
rwrist -13.6817
rhand 21.9344 -16.4558
rfingers 7.12502
rthumb 226.333 -219.411
lclavicle -9.01488e-014 1.27595e-013
lhumerus -45.3553 -6.07213 68.4788
lradius 52.8081
lwrist 68.4998
lhand 184.894 192.72
lfingers 7.12502
lthumb 210.269 -139.742
rfemur -46.5659 22.2298 10.6421
rtibia 116.317
rfoot 19.5937 19.0795
rtoes -0.455156
lfemur -36.2046 -20.1016 -4.32258
ltibia 104.775
lfoot 23.4546 -23.9225
ltoes -12.8773
311
root 3.88003 1.00893 19.7805 -139.479 -85.9656 40.0576
lowerback 12.3883 0.311211 3.66118
upperback 10.8466 0.26284 -0.698992
thorax 4.54446 0.146822 -2.82664
lowerneck -17.4341 5.86431 8.41073
upperneck 32.4774 6.13513 -1.34192
head 14.4256 3.32078 -0.959711
rclavicle -3.51849e-014 8.43592e-014
rhumerus -42.6033 13.8941 -65.8228
rradius 92.1805
rwrist -13.2556
rhand 22.2406 -16.5273
rfingers 7.12502
rthumb 226.616 -219.361
lclavicle -3.51849e-014 8.43592e-014
lhumerus -45.1587 -6.1159 68.5522
lradius 52.2377
lwrist 67.9046
lhand 185.06 192.24
lfingers 7.12502
lthumb 210.427 -140.251
rfemur -46.0804 22.2778 10.8336
rtibia 116.18
rfoot 19.7626 19.0374
rtoes -0.482004
lfemur -35.6176 -20.1222 -4.43229
ltibia 104.67
lfoot 23.4179 -23.934
ltoes -13.2144
312
root 3.87803 1.00723 19.7846 -141.802 -85.9504 41.9641
lowerback 12.56 0.269414 3.71131
upperback 10.8173 0.215631 -0.697405
thorax 4.41752 0.121859 -2.84986
lowerneck -17.4343 5.8191 8.35378
upperneck 32.5043 6.09201 -1.35853
head 14.4326 3.29175 -0.965231
rclavicle 3.18055e-015 -3.62782e-015
rhumerus -42.0329 14.0356 -65.8137
rradius 91.8391
rwrist -12.7962
rhand 22.5247 -16.5967
rfingers 7.12502
rthumb 226.879 -219.316
lclavicle 3.18055e-015 -3.62782e-015
lhumerus -44.9699 -6.17694 68.6022
lradius 51.6576
lwrist 67.2213
lhand 185.252 191.702
lfingers 7.12502
lthumb 210.61 -140.823
rfemur -45.58 22.3348 11.036
rtibia 116.04
rfoot 19.9336 18.9874
rtoes -0.484249
lfemur -35.0188 -20.1461 -4.54517
ltibia 104.568
lfoot 23.3736 -23.9411
ltoes -13.5815
313
root 3.87596 1.0058 19.7887 -144.133 -85.9321 43.8769
lowerback 12.7379 0.231683 3.77743
upperback 10.7752 0.177409 -0.71155
thorax 4.27457 0.102996 -2.8991
lowerneck -17.4335 5.77786 8.32054
upperneck 32.559 6.04236 -1.36306
head 14.4524 3.26432 -0.970942
rclavicle -3.1408e-014 8.54774e-015
rhumerus -41.4966 14.1445 -65.8395
rradius 91.5192
rwrist -12.3172
rhand 22.7866 -16.6682
rfingers 7.12502
rthumb 227.122 -219.281
lclavicle -3.1408e-014 8.54774e-015
lhumerus -44.7748 -6.27952 68.632
lradius 51.0656
lwrist 66.476
lhand 185.466 191.122
lfingers 7.12502
lthumb 210.815 -141.442
rfemur -45.0755 22.398 11.2456
rtibia 115.901
rfoot 20.1027 18.9286
rtoes -0.464255
lfemur -34.4181 -20.1702 -4.65595
ltibia 104.467
lfoot 23.3275 -23.9431
ltoes -13.9654
314
root 3.8741 1.00472 19.7922 -146.395 -85.9114 45.7431
lowerback 12.8988 0.167275 3.77679
upperback 10.7068 0.0975787 -0.728101
thorax 4.10743 0.0582173 -2.90925
lowerneck -17.3861 5.78651 8.39939
upperneck 32.6384 6.05821 -1.43191
head 14.4853 3.27001 -1.01078
rclavicle 1.5704e-014 -7.35503e-015
rhumerus -40.9391 14.352 -65.9234
rradius 91.2089
rwrist -11.8403
rhand 23.0331 -16.7496
rfingers 7.12502
rthumb 227.349 -219.26
lclavicle 1.5704e-014 -7.35503e-015
lhumerus -44.6523 -6.29461 68.6093
lradius 50.4776
lwrist 65.6913
lhand 185.699 190.522
lfingers 7.12502
lthumb 211.036 -142.083
rfemur -44.5956 22.458 11.4532
rtibia 115.768
rfoot 20.2669 18.8629
rtoes -0.429414
lfemur -33.8441 -20.1869 -4.75041
ltibia 104.366
lfoot 23.2879 -23.9436
ltoes -14.351
315
root 3.8725 1.00399 19.7946 -148.545 -85.8906 47.5258
lowerback 13.0346 0.0854673 3.71254
upperback 10.6142 -0.0115754 -0.737019
thorax 3.92394 -0.0057812 -2.87219
lowerneck -17.3061 5.82983 8.54789
upperneck 32.736 6.12481 -1.55046
head 14.528 3.29926 -1.07418
rclavicle -8.13029e-014 1.11021e-013
rhumerus -40.3589 14.6397 -66.0301
rradius 90.9076
rwrist -11.3914
rhand 23.2781 -16.8509
rfingers 7.12502
rthumb 227.576 -219.259
lclavicle -8.13029e-014 1.11021e-013
lhumerus -44.5806 -6.23774 68.5565
lradius 49.8933
lwrist 64.8985
lhand 185.938 189.934
lfingers 7.12502
lthumb 211.264 -142.715
rfemur -44.1494 22.5102 11.6571
rtibia 115.644
rfoot 20.4229 18.7905
rtoes -0.383901
lfemur -33.308 -20.1956 -4.82176
ltibia 104.265
lfoot 23.2587 -23.9462
ltoes -14.7276
316
root 3.8712 1.00358 19.7957 -150.563 -85.8713 49.212
lowerback 13.1384 -0.0148719 3.56395
upperback 10.4994 -0.15471 -0.718876
thorax 3.72993 -0.09292 -2.75517
lowerneck -17.1998 5.9079 8.73965
upperneck 32.8447 6.25568 -1.72949
head 14.5789 3.35304 -1.15864
rclavicle -2.5842e-014 -8.84592e-015
rhumerus -39.7236 15.0438 -66.1116
rradius 90.6096
rwrist -11.0031
rhand 23.5389 -16.9813
rfingers 7.12502
rthumb 227.816 -219.279
lclavicle -2.5842e-014 -8.84592e-015
lhumerus -44.5615 -6.07307 68.4946
lradius 49.3175
lwrist 64.1258
lhand 186.169 189.392
lfingers 7.12502
lthumb 211.485 -143.3
rfemur -43.7457 22.5508 11.8549
rtibia 115.532
rfoot 20.5698 18.7136
rtoes -0.33041
lfemur -32.82 -20.1952 -4.86468
ltibia 104.166
lfoot 23.2413 -23.9543
ltoes -15.0873
317
root 3.87022 1.00346 19.7957 -152.457 -85.8545 50.8121
lowerback 13.2099 -0.126908 3.33034
upperback 10.3685 -0.323433 -0.654416
thorax 3.53422 -0.19895 -2.53835
lowerneck -17.0861 6.00912 8.91984
upperneck 32.9565 6.44803 -1.96108
head 14.636 3.42426 -1.25192
rclavicle -1.78906e-014 2.85256e-014
rhumerus -39.0071 15.5745 -66.1002
rradius 90.3121
rwrist -10.7087
rhand 23.8288 -17.1466
rfingers 7.12502
rthumb 228.084 -219.32
lclavicle -1.78906e-014 2.85256e-014
lhumerus -44.577 -5.79234 68.4574
lradius 48.7525
lwrist 63.4001
lhand 186.372 188.925
lfingers 7.12502
lthumb 211.677 -143.805
rfemur -43.3858 22.579 12.0457
rtibia 115.431
rfoot 20.7088 18.6348
rtoes -0.267159
lfemur -32.3816 -20.1858 -4.87881
ltibia 104.069
lfoot 23.2373 -23.9669
ltoes -15.4167
318
root 3.86957 1.0036 19.7949 -154.253 -85.8393 52.3473
lowerback 13.2532 -0.237839 3.03508
upperback 10.2287 -0.498193 -0.535758
thorax 3.34585 -0.312051 -2.22884
lowerneck -16.9933 6.11582 9.02976
upperneck 33.0681 6.68241 -2.21781
head 14.6988 3.50069 -1.33588
rclavicle -7.55382e-015 8.44835e-015
rhumerus -38.2004 16.2055 -65.9392
rradius 90.0148
rwrist -10.53
rhand 24.1526 -17.3459
rfingers 7.12502
rthumb 228.382 -219.378
lclavicle -7.55382e-015 8.44835e-015
lhumerus -44.5944 -5.42385 68.4731
lradius 48.1988
lwrist 62.742
lhand 186.526 188.552
lfingers 7.12502
lthumb 211.825 -144.207
rfemur -43.0655 22.5968 12.2291
rtibia 115.34
rfoot 20.842 18.5573
rtoes -0.191356
lfemur -31.9872 -20.1685 -4.86849
ltibia 103.974
lfoot 23.245 -23.9827
ltoes -15.711
319
root 3.86925 1.00402 19.7935 -155.977 -85.824 53.8365
lowerback 13.2748 -0.338673 2.69875
upperback 10.0855 -0.664643 -0.360235
thorax 3.16968 -0.423406 -1.83735
lowerneck -16.9427 6.21685 9.03014
upperneck 33.1792 6.94479 -2.47722
head 14.7681 3.57407 -1.39668
rclavicle -3.57812e-014 9.80008e-014
rhumerus -37.3014 16.9096 -65.5968
rradius 89.7192
rwrist -10.4692
rhand 24.5056 -17.5699
rfingers 7.12502
rthumb 228.707 -219.446
lclavicle -3.57812e-014 9.80008e-014
lhumerus -44.5921 -4.989 68.5587
lradius 47.6578
lwrist 62.1569
lhand 186.618 188.277
lfingers 7.12502
lthumb 211.912 -144.5
rfemur -42.7771 22.6069 12.4055
rtibia 115.256
rfoot 20.9725 18.4832
rtoes -0.0985559
lfemur -31.6279 -20.1447 -4.84037
ltibia 103.881
lfoot 23.2629 -23.9984
ltoes -15.9645
320
root 3.86932 1.00471 19.7919 -157.632 -85.8074 55.2818
lowerback 13.2792 -0.430738 2.33507
upperback 9.9352 -0.822523 -0.141566
thorax 3.00023 -0.531529 -1.38635
lowerneck -16.9235 6.31537 8.94957
upperneck 33.288 7.23106 -2.73921
head 14.8419 3.6461 -1.43997
rclavicle -2.22639e-014 5.9039e-014
rhumerus -36.3267 17.6675 -65.1055
rradius 89.4286
rwrist -10.5012
rhand 24.8717 -17.8036
rfingers 7.12502
rthumb 229.043 -219.515
lclavicle -2.22639e-014 5.9039e-014
lhumerus -44.5787 -4.50267 68.6938
lradius 47.1361
lwrist 61.6354
lhand 186.646 188.089
lfingers 7.12502
lthumb 211.939 -144.693
rfemur -42.5179 22.6099 12.5725
rtibia 115.176
rfoot 21.1029 18.4154
rtoes 0.0126546
lfemur -31.2995 -20.1149 -4.79983
ltibia 103.792
lfoot 23.2898 -24.0108
ltoes -16.1743
321
root 3.86971 1.00566 19.7903 -159.217 -85.7882 56.6705
lowerback 13.2769 -0.496195 2.00315
upperback 9.7824 -0.940402 0.0933537
thorax 2.83751 -0.616038 -0.940541
lowerneck -16.9564 6.3878 8.77396
upperneck 33.3975 7.48989 -2.95662
head 14.9189 3.69936 -1.45275
rclavicle -1.35174e-014 -1.09332e-014
rhumerus -35.3452 18.3628 -64.5151
rradius 89.1565
rwrist -10.5765
rhand 25.2302 -18.0286
rfingers 7.12502
rthumb 229.372 -219.575
lclavicle -1.35174e-014 -1.09332e-014
lhumerus -44.5134 -4.06348 68.872
lradius 46.6292
lwrist 61.157
lhand 186.62 187.968
lfingers 7.12502
lthumb 211.914 -144.809
rfemur -42.273 22.609 12.7327
rtibia 115.1
rfoot 21.2342 18.3537
rtoes 0.143592
lfemur -30.987 -20.0833 -4.75693
ltibia 103.704
lfoot 23.3216 -24.0189
ltoes -16.347
322
root 3.87043 1.00679 19.7886 -160.705 -85.7667 57.9764
lowerback 13.2727 -0.556586 1.68575
upperback 9.61373 -1.04842 0.318493
thorax 2.66219 -0.692737 -0.514054
lowerneck -16.9836 6.46416 8.62589
upperneck 33.5011 7.74789 -3.17562
head 14.9946 3.7551 -1.47107
rclavicle -5.48646e-014 5.80451e-014
rhumerus -34.392 19.0197 -63.9478
rradius 88.9102
rwrist -10.6331
rhand 25.5579 -18.2279
rfingers 7.12502
rthumb 229.673 -219.621
lclavicle -5.48646e-014 5.80451e-014
lhumerus -44.458 -3.64309 69.0278
lradius 46.151
lwrist 60.6918
lhand 186.556 187.888
lfingers 7.12502
lthumb 211.853 -144.877
rfemur -42.044 22.6023 12.8821
rtibia 115.026
rfoot 21.3693 18.2995
rtoes 0.294597
lfemur -30.6922 -20.0501 -4.71496
ltibia 103.618
lfoot 23.3555 -24.0244
ltoes -16.4906
